<svg version="1.0" xmlns="http://www.w3.org/2000/svg" width="346.667" height="346.667" viewBox="0 0 260 260"><path d="M250 71.3c-4.4 2.2-13.6 14.4-19.8 26.4-6.5 12.6-9.7 15.9-16.5 17l-3.5.5.5-4.4c.4-3.3.1-4.9-1.2-6.1-3.1-3.1-3.1-3.1-17.9 12.7-3.6 3.7-6.9 6.5-7.5 6.1-1.8-1-1.3-4.5 1.6-10 2.7-5.6 2.6-8.5-.5-8.5-2.6 0-5.3 3.2-10.2 12-4.8 8.6-6.7 11-8.7 11-1.6 0-1.7-4-.1-7.5 2-4.4.1-3.9-5.9 1.4-11.4 10.2-19 9-16.8-2.5.6-3.3 4.9-9.4 6.6-9.4 1.2 0 1.2 4.7-.1 5.5-.5.3-1 1.1-1 1.7 0 1.6 3.8-2.1 4.6-4.4.7-2.5-1.2-4.8-4.1-4.8-3.1 0-9.1 6.9-10.5 12.1-1.4 5.2-.7 8.4 2.5 10.5 3.4 2.2 8.1 1.2 14.5-3.1l5.1-3.4.9 2.4c1.2 3 4.5 4.1 7.3 2.2 1.2-.8 4-4.9 6.2-9.1 2.2-4.3 4.6-8.3 5.4-8.9 1-.9 1-.4-.2 2-2 3.7-2.2 10.4-.5 12.1 2.1 2.1 5.7 1.3 9.7-2.3 2.1-1.9 4.1-3.5 4.3-3.5.3 0 .6 1.1.6 2.5 0 8.1 8.5 6.6 13.1-2.3.7-1.4 2.1-2.2 3.7-2.2 1.3 0 4.1-.7 6.1-1.5s3.7-1.4 3.9-1.3c.1.2-.4 2.7-1.1 5.6-2.6 9.8 1.5 13.4 7.4 6.7 3.8-4.4 4.2-9.7 1-13.1-2.9-3.1-1.6-5 7.8-11.7 19.5-13.7 27.4-24.7 21.5-30-2.2-2-4.8-2.1-8.2-.4zm6.6 3.2c1.1 2.7-.5 6.2-5.1 11.2-5.4 6.1-18.3 16.8-19.2 16-.9-.9 9.9-18.5 14.7-24 4.3-4.9 8.5-6.3 9.6-3.2zM208.8 109c.4 3.8-1.4 6.3-2.8 4-1.1-1.8-1.3-6.4-.3-7.4 1.4-1.4 2.8.1 3.1 3.4zm-3.8 11.5c-2.8 4.5-6 4.8-6 .5 0-1.7.7-4.4 1.5-6l1.5-2.9 2.6 2.4 2.6 2.4-2.2 3.6zm22.4-1.7c-.1 4.5-3 9-4.7 7.3-1.2-1.2 2.2-12.3 3.7-11.8.6.2 1.1 2.3 1 4.5z"/><path d="M24.5 110.2c-4.9 9.9-15.5 27-17.6 28.3-2.3 1.5-2-.9 1.1-9.2 7.3-19.4 8.1-22.2 7-24.3-1.7-3.1-5.8-2.5-9.4 1.3C2.2 109.9-.2 116 1 118c.9 1.4 1.5.6 2.4-3.5.9-3.8 5.2-9.5 7.2-9.5.7 0 1.4.4 1.4.8 0 .5-2.3 6.4-5 13.3-4 9.7-5 13.4-4.8 16.9.3 4 .6 4.5 3 4.8 2.3.3 3.3-.7 7.9-7.7 2.9-4.4 5.5-7.9 5.7-7.7.2.2-.1 2.1-.7 4.3-1.4 4.9-1.4 12.9-.1 15.4 2.2 4 5 2.2 18-11.1 11.4-11.7 15-14.6 15-12.2 0 .5-2 3.2-4.5 6.1-10.4 12.2-5.4 18.1 8.1 9.6 3.2-2 7.1-4.9 8.6-6.3 1.5-1.4 3-2.3 3.3-2.1.5.5-3.9 14.9-5.5 17.9-.4.9-1.1 3-1.4 4.8-1.2 5.2 1.4 10.1 2.7 5.2.4-1.4 1.4-2 3.5-2 3.6 0 4.3.7 3.1 3.5-.6 1.7-.8 1.7-.8.2-.1-2.6-3-2.1-4.3.8-1.3 3-2.2 3.1-5.6.7-1.9-1.3-3.5-1.6-5.2-1.1-2.4.7-2.4.7-.2.9 1.2.1 2.7.3 3.2.4.6 0 1.4.6 1.8 1.2.6 1 7.7 3 9.5 2.6.4-.1.7.7.7 1.8 0 1.5-.9 2.2-3.1 2.7l-3.2.6L64 171c3 2.3 9.8 2.4 9.6.1-.1-1.2.7-1.5 3.4-1.3 1.9.1 3.7.6 4 1 .9 1.4 8.5 3.2 8.8 2.2.2-.6 1-1 1.8-1 .9 0 1.2-.5.9-1-.3-.6-.1-1 .5-1s1.6 1.1 2.2 2.5c1.2 2.7 3.1 3.5 2.2 1-.5-1.1.2-1.5 2.6-1.5 2.2 0 3.1.4 2.7 1.2-.3.9.6 1.4 2.5 1.5 2.4.2 2.8 0 1.9-1.1-.9-1.1-.6-1.5 1.6-1.9 1.9-.4 3.2-.1 4.1 1.1 1.1 1.5 1.4 1.5 2.2.2.5-.8 1.2-1.1 1.7-.7.4.5.1 1.2-.6 1.7-1.5.9-.8 4 .8 4 .6 0 .8-.7.4-1.6-.4-1.2 0-1.4 1.8-.9 1.3.3 7.6.7 13.9.8 11.9.3 14 .8 14 3.3 0 2 1 1.8 3.9-.9 1.4-1.2 2-1.5 1.3-.6-1.4 1.9-.7 2.9 2.1 2.9 1.6 0 1.7-.2.7-1.5-.7-.9-1-1.9-.6-2.3 1.5-1.4 13.4-.6 16 1.1 2.8 1.9 6.2 2.2 7.1.7.3-.6 1.4-1 2.3-1 .9 0 2.3-1.4 3-3 1.3-2.8 2.8-3.5 7.2-3.2.8 0 2.3-1 3.3-2.4 1-1.3 1.4-2.4 1-2.4-1.5 0-1.1-7.8.4-8.4 1.1-.5 1.1-1 .3-2.6s-.8-2.5 0-3.4c.7-1 .7-2.2 0-4-.5-1.5-1-3.9-1-5.2 0-1.5-.4-2.3-1.1-1.9-.6.4-.8 1.3-.5 2.1.8 2-1.3 2.8-3.2 1.2-.9-.8-3-2.2-4.5-3.2-2.8-1.7-2.9-1.7-2.2.3.8 2.5-.4 2.6-6.1.6-8.2-2.8-17.4-3.9-23.9-2.7-3.3.7-7.8 1.3-10 1.4-2.2.1-4.5.5-5 .9-.6.4-3.3.6-6 .4-2.8-.1-6.7.2-8.9.8-3.3.9-4 .9-5.2-.7-.9-1.3-2.1-1.7-3.9-1.4-1.4.3-2.5.1-2.5-.6 0-.6-.5-.3-1.1.6-.6 1.2-2.2 1.8-4.4 1.8-1.8 0-4 .7-4.9 1.5-.8.8-2.8 1.5-4.5 1.5-1.7 0-3.1.4-3.1 1 0 .5-.7.7-1.5.4-.8-.4-1.5-1.3-1.5-2.1 0-1-.6-1.3-1.6-.9-.9.3-2 .6-2.6.6-.6 0-.7.7-.4 1.6.4 1.1-.1 1.8-1.4 2.1-1.1.3-2 1.4-2 2.5 0 2.6-2.1 4.6-4.5 4.1-1.1-.2-3.3-.5-5-.7-3.8-.4-8.5-2.3-8.5-3.4 0-2 1.4-2 2.8-.1l1.4 2 2-2.1c1.5-1.6 3-2.1 5.7-1.9 2.5.2 3.5-.1 3.3-1-.1-.7.5-1.9 1.5-2.7 1.6-1.2.8-1.3-5.9-1.4-4.5 0-7.8-.4-7.8-1s.4-1 .9-1 .7-.8.4-1.8c-.2-1.1 1.3-4.2 3.9-7.8 2.4-3.2 5.4-7.5 6.7-9.5 2.4-3.6 5.9-6.5 6.7-5.6.3.2-.5 2.9-1.7 5.9-1.7 4.7-2.7 5.9-5.9 7.3-4.3 1.9-5.6 4-3.9 6.1 1.9 2.3 4.1 1.6 8.3-2.9 3.1-3.4 8.7-6.7 11-6.7.1 0 0 1.5-.2 3.3-.2 2.2.2 3.8 1.2 4.6 2.2 1.8 5.4-.3 9.8-6.5l3.3-4.7.3 3.6c.4 4.9 2.3 6.3 6.3 4.7 3-1.3 6.7-5.6 5.6-6.6-.3-.3-1.9.9-3.5 2.7-5.6 6.3-7 .5-2.2-9.2 2.8-5.3 2.9-6 1.3-6.6-.9-.4-1.9-.1-2.1.5-.2.7-2.1 1.2-4.3 1.2-3.3 0-4.7.8-9.6 5.5-5.4 5.1-10.7 8.4-11.9 7.3-.2-.3 0-1.7.6-3.2 2.5-6.7 0-10.7-5.1-8-1.5.7-4.6 4-6.9 7.1-2.3 3.2-3.9 4.9-3.5 3.8.4-1.1 1.2-3.2 1.7-4.8.7-2 .7-3.2-.2-4.2-1.9-2.3-3-1.8-3 1.4 0 4.9-16 18.2-24 19.7-1.7.4-3 .2-3-.3 0-.6 2.2-3.6 5-6.7 6.8-7.8 7.8-12.6 2.6-12.6-3.1 0-6.8 3-18.3 14.9-5.9 6-10.6 10.2-11.4 9.9-3.5-1.1-1.7-9.5 5.7-28 4.3-10.6 5.1-14.8 2.9-15.5-.6-.2-3.3 4.3-6 9.9zm84.4 9c-4.4 6.4-11.3 14.1-11.7 13-.6-1.8 4.9-11.1 8.1-13.8 4.3-3.7 6.4-3.2 3.6.8zm-20.5 39c1.2 2 .3 3.2-3.1 4.3-2.1.6-2.3.3-2.3-3 0-3.2.3-3.6 2.1-3.3 1.2.2 2.7 1.1 3.3 2zm9.4-.9c.7.8.8 2.4.4 4.2-.6 2-1.1 2.5-1.6 1.7-.4-.7-1.6-1-2.7-.7-1.6.5-1.9.1-1.9-2.3 0-1.6.3-3.2.7-3.5 1.1-1.1 4-.8 5.1.6zM67 159c0 .5-.5 1-1.1 1-.5 0-.7-.5-.4-1 .3-.6.8-1 1.1-1 .2 0 .4.4.4 1zm45.8 2.3c.3 2.3 0 2.7-2.2 2.7-2.9 0-3.7-2.9-.8-3.1 1 0 1.2-.3.5-.6-2-.7-1.5-2.5.5-2.1 1 .2 1.8 1.4 2 3.1zm8.2-2.3c0 .5-.6 1-1.4 1-.8 0-1.7.8-1.9 1.7-.3 1.1-.5.7-.6-1-.1-2.1.4-2.7 1.9-2.7 1.1 0 2 .4 2 1zm7.5 2c0 1.8-.6 2.6-2.1 2.8-2.6.4-4-2.4-2.3-4.5 1.8-2.1 4.4-1.1 4.4 1.7zm6.4 0c.4 0 1.2-.5 1.9-1.2.9-.9 1.2-.7 1.2 1.1s-.4 2.2-1.7 1.7c-.9-.4-2-.1-2.4.6-1.1 1.8-2.3-1.7-1.4-4 .8-1.6.8-1.6 1.2 0 .3 1 .8 1.8 1.2 1.8zm11.1-2c0 .5-.4 1-1 1-.5 0-1 1-1 2.2 0 2.7-.5 2.1-1.4-1.5-.5-2.3-.3-2.7 1.4-2.7 1.1 0 2 .4 2 1zm8 0c0 .5-.9 1-2.1 1-1.2 0-1.9.5-1.6 1.2.2.7 1.1 1.2 2.1 1 .9-.2 1.6.2 1.6.8 0 1.6-4 1.2-4.6-.5-.9-2.3.3-4.5 2.6-4.5 1.1 0 2 .4 2 1zm7 0c0 .5-.5 1-1.1 1-.6 0-.9.7-.5 1.5.3.8.1 1.5-.4 1.5-.6 0-1-.4-1-.9s-.3-1.6-.6-2.5c-.4-1.2 0-1.6 1.5-1.6 1.2 0 2.1.4 2.1 1zm8 2c0 2.3-.4 3-2 3-2.3 0-3.5-2.2-2.6-4.5.3-.8 1.5-1.5 2.6-1.5 1.6 0 2 .7 2 3zm9.5-1c.8 2.6-.1 4-2.6 4-2.2 0-3.4-2.2-2.5-4.5.8-2.2 4.4-1.8 5.1.5zm-74 1c.3.5-.1 1-1 1s-1.3-.5-1-1c.3-.6.8-1 1-1 .2 0 .7.4 1 1zM75 166c0 .5-.4 1-.9 1-.6 0-1.3-.5-1.6-1-.3-.6.1-1 .9-1 .9 0 1.6.4 1.6 1zm25.7 4.6c-.3.3-1.2.4-1.9.1-.8-.3-.5-.6.6-.6 1.1-.1 1.7.2 1.3.5z"/><path d="M84.5 158c-.4.6-.3 1.6.3 2.2.6.6 1.2.6 1.7-.2.4-.6.3-1.6-.3-2.2-.6-.6-1.2-.6-1.7.2zm9.5 1.6c0 .9.5 1.4 1.2 1.2 1.8-.6 2.1-2.8.4-2.8-.9 0-1.6.7-1.6 1.6zm80.2 1.5c.2.6.8 1 1.3 1s1.1-.4 1.3-1c.2-.6-.4-1.1-1.3-1.1s-1.5.5-1.3 1.1zM96.5 144c.3.5 1 1 1.6 1 .5 0 .9-.5.9-1 0-.6-.7-1-1.6-1-.8 0-1.2.4-.9 1zm-19.9 6.8c-.3.6-.1 1.4.5 1.7 1.5 1 2.5-.3 1.2-1.6-.7-.7-1.3-.7-1.7-.1zm-22.8 5.9c.7.3 1.6.2 1.9-.1.4-.3-.2-.6-1.3-.5-1.1 0-1.4.3-.6.6zm131.3 17.2c-.8.6-.9 1.1-.3 1.5.6.3 1.4.1 1.7-.5.9-1.4.2-2-1.4-1zm-104 2c-1 .7-1 1-.1 1.6.6.4 1.6.3 2.2-.3 1.3-1.3-.4-2.3-2.1-1.3zM89 177c0 .5.5 1 1 1 .6 0 1-.5 1-1 0-.6-.4-1-1-1-.5 0-1 .4-1 1z"/></svg>